<svg width="830" height="135" viewBox="0 0 830 135" fill="none" xmlns="http://www.w3.org/2000/svg">
<g clip-path="url(#clip0_629_6289)">
<rect width="830" height="135" rx="14" fill="#162630"/>
<rect width="830" height="135" rx="14" fill="#142027" fill-opacity="0.4"/>
<rect width="830" height="135" rx="14" fill="url(#paint0_radial_629_6289)" fill-opacity="0.2"/>
<rect width="830" height="135" rx="14" fill="url(#paint1_radial_629_6289)" fill-opacity="0.2"/>
<path fill-rule="evenodd" clip-rule="evenodd" d="M39.0098 30.8346L28 30.835V25.123H39.0098V30.835H44.754V41.8771H39.0098V36.5471C36.093 36.5979 33.7442 38.9647 33.7442 41.8771H28C28 35.8103 32.9205 30.8862 39.0098 30.835V30.8346Z" fill="#A0D9FF"/>
<path d="M65.1859 26.012L64.4859 29.316C64.1872 29.1293 63.7859 28.9707 63.2819 28.84C62.7966 28.7093 62.2926 28.6067 61.7699 28.532C61.2472 28.4387 60.7526 28.392 60.2859 28.392C59.3899 28.392 58.7086 28.5227 58.2419 28.784C57.7752 29.0453 57.5419 29.4467 57.5419 29.988C57.5419 30.3613 57.6912 30.66 57.9899 30.884C58.2886 31.108 58.6806 31.304 59.1659 31.472C59.6699 31.64 60.2206 31.808 60.8179 31.976C61.4152 32.144 62.0126 32.3493 62.6099 32.592C63.2072 32.816 63.7486 33.1147 64.2339 33.488C64.7192 33.8427 65.1112 34.3093 65.4099 34.888C65.7272 35.448 65.8859 36.148 65.8859 36.988C65.8859 38.5933 65.2979 39.872 64.1219 40.824C62.9459 41.776 61.2472 42.252 59.0259 42.252C57.9992 42.252 57.0192 42.1587 56.0859 41.972C55.1712 41.7853 54.4152 41.5333 53.8179 41.216L54.1259 37.744C54.4992 37.968 54.9566 38.1733 55.4979 38.36C56.0392 38.5467 56.6272 38.696 57.2619 38.808C57.8966 38.92 58.5219 38.976 59.1379 38.976C60.1272 38.976 60.8646 38.8453 61.3499 38.584C61.8352 38.304 62.0779 37.884 62.0779 37.324C62.0779 36.932 61.9192 36.6147 61.6019 36.372C61.3032 36.1293 60.9112 35.924 60.4259 35.756C59.9406 35.588 59.3992 35.42 58.8019 35.252C58.2046 35.084 57.6072 34.888 57.0099 34.664C56.4126 34.4213 55.8619 34.1227 55.3579 33.768C54.8726 33.4133 54.4806 32.956 54.1819 32.396C53.8832 31.836 53.7339 31.136 53.7339 30.296C53.7339 29.2693 53.9859 28.3733 54.4899 27.608C55.0126 26.824 55.7592 26.2173 56.7299 25.788C57.7006 25.34 58.8579 25.116 60.2019 25.116C60.7432 25.116 61.3219 25.1533 61.9379 25.228C62.5539 25.284 63.1419 25.3773 63.7019 25.508C64.2806 25.6387 64.7752 25.8067 65.1859 26.012ZM76.9218 30.52L76.1378 33.768C75.8205 33.4507 75.4005 33.1893 74.8778 32.984C74.3552 32.7787 73.8138 32.676 73.2538 32.676C72.6378 32.676 72.0778 32.8067 71.5738 33.068C71.0885 33.3107 70.7058 33.6653 70.4258 34.132C70.1645 34.5987 70.0338 35.1587 70.0338 35.812C70.0338 36.484 70.1738 37.0627 70.4538 37.548C70.7338 38.0333 71.1352 38.3973 71.6578 38.64C72.1992 38.8827 72.8245 39.004 73.5338 39.004C74.1685 39.004 74.7658 38.9107 75.3258 38.724C75.9045 38.5373 76.4178 38.2947 76.8658 37.996L77.0058 41.188C76.4832 41.5053 75.8858 41.7667 75.2138 41.972C74.5418 42.1587 73.7858 42.252 72.9458 42.252C71.7698 42.252 70.6778 42 69.6698 41.496C68.6618 40.992 67.8498 40.264 67.2338 39.312C66.6365 38.3413 66.3378 37.1747 66.3378 35.812C66.3378 34.58 66.6272 33.488 67.2058 32.536C67.7845 31.5653 68.5685 30.8093 69.5578 30.268C70.5472 29.708 71.6485 29.428 72.8618 29.428C73.7578 29.428 74.5418 29.5307 75.2138 29.736C75.9045 29.9227 76.4738 30.184 76.9218 30.52ZM90.6657 35.84C90.6657 37.072 90.3764 38.1733 89.7977 39.144C89.2377 40.1147 88.4537 40.88 87.4457 41.44C86.4377 41.9813 85.2897 42.252 84.0017 42.252C82.7137 42.252 81.5657 41.9813 80.5577 41.44C79.5497 40.88 78.7564 40.1147 78.1777 39.144C77.6177 38.1733 77.3377 37.072 77.3377 35.84C77.3377 34.5893 77.6177 33.488 78.1777 32.536C78.7564 31.5653 79.5497 30.8093 80.5577 30.268C81.5657 29.708 82.7137 29.428 84.0017 29.428C85.2897 29.428 86.4377 29.708 87.4457 30.268C88.4537 30.8093 89.2377 31.5653 89.7977 32.536C90.3764 33.488 90.6657 34.5893 90.6657 35.84ZM86.9697 35.84C86.9697 35.1867 86.839 34.6173 86.5777 34.132C86.3164 33.628 85.9617 33.2453 85.5137 32.984C85.0657 32.704 84.5617 32.564 84.0017 32.564C83.4417 32.564 82.9377 32.704 82.4897 32.984C82.0417 33.2453 81.687 33.628 81.4257 34.132C81.1644 34.6173 81.0337 35.1867 81.0337 35.84C81.0337 36.4933 81.1644 37.072 81.4257 37.576C81.687 38.0613 82.0417 38.444 82.4897 38.724C82.9564 38.9853 83.4604 39.116 84.0017 39.116C84.5804 39.116 85.0937 38.9853 85.5417 38.724C85.9897 38.444 86.335 38.0613 86.5777 37.576C86.839 37.072 86.9697 36.4933 86.9697 35.84ZM103.31 24.248V42H99.7259V41.244C98.8299 41.916 97.7752 42.252 96.5619 42.252C95.5539 42.252 94.6205 42 93.7619 41.496C92.9219 40.992 92.2499 40.2733 91.7459 39.34C91.2419 38.388 90.9899 37.268 90.9899 35.98C90.9899 34.6547 91.2419 33.5067 91.7459 32.536C92.2685 31.5467 92.9965 30.7813 93.9299 30.24C94.8819 29.6987 95.9925 29.428 97.2619 29.428C97.7099 29.428 98.1485 29.4653 98.5779 29.54C99.0072 29.6147 99.3899 29.7267 99.7259 29.876V24.416L103.31 24.248ZM99.7259 32.872C99.5019 32.7787 99.2125 32.6947 98.8579 32.62C98.5032 32.5453 98.1579 32.508 97.8219 32.508C97.1872 32.508 96.6272 32.648 96.1419 32.928C95.6752 33.1893 95.3112 33.572 95.0499 34.076C94.8072 34.58 94.6859 35.1773 94.6859 35.868C94.6859 36.54 94.7979 37.128 95.0219 37.632C95.2459 38.1173 95.5725 38.5 96.0019 38.78C96.4499 39.0413 96.9632 39.172 97.5419 39.172C98.3819 39.172 99.1099 38.9573 99.7259 38.528V32.872ZM117.697 35.84C117.697 37.072 117.407 38.1733 116.829 39.144C116.269 40.1147 115.485 40.88 114.477 41.44C113.469 41.9813 112.321 42.252 111.033 42.252C109.745 42.252 108.597 41.9813 107.589 41.44C106.581 40.88 105.787 40.1147 105.209 39.144C104.649 38.1733 104.369 37.072 104.369 35.84C104.369 34.5893 104.649 33.488 105.209 32.536C105.787 31.5653 106.581 30.8093 107.589 30.268C108.597 29.708 109.745 29.428 111.033 29.428C112.321 29.428 113.469 29.708 114.477 30.268C115.485 30.8093 116.269 31.5653 116.829 32.536C117.407 33.488 117.697 34.5893 117.697 35.84ZM114.001 35.84C114.001 35.1867 113.87 34.6173 113.609 34.132C113.347 33.628 112.993 33.2453 112.545 32.984C112.097 32.704 111.593 32.564 111.033 32.564C110.473 32.564 109.969 32.704 109.521 32.984C109.073 33.2453 108.718 33.628 108.457 34.132C108.195 34.6173 108.065 35.1867 108.065 35.84C108.065 36.4933 108.195 37.072 108.457 37.576C108.718 38.0613 109.073 38.444 109.521 38.724C109.987 38.9853 110.491 39.116 111.033 39.116C111.611 39.116 112.125 38.9853 112.573 38.724C113.021 38.444 113.366 38.0613 113.609 37.576C113.87 37.072 114.001 36.4933 114.001 35.84ZM130.873 29.764L126.533 34.804L131.097 42H126.981L123.789 37.296L122.333 38.976V42H118.749V24.416L122.333 24.248V35.588H122.473C122.678 35.1773 122.949 34.72 123.285 34.216C123.621 33.6933 124.022 33.1333 124.489 32.536L127.037 29.596L130.873 29.764Z" fill="#A0D9FF"/>
<path d="M48.4377 78H43.5601L41.8427 73.0194H34.6637L32.9119 78H28.2748L35.6942 57.5966H41.0183L48.4377 78ZM40.6748 69.4127L39.0261 64.7756C38.8658 64.3176 38.7284 63.894 38.6139 63.5047C38.5223 63.0925 38.4307 62.6803 38.3391 62.2681H38.1673C38.0757 62.6803 37.9727 63.0925 37.8582 63.5047C37.7666 63.894 37.6407 64.3176 37.4804 64.7756L35.7972 69.4127H40.6748ZM66.9428 63.3329L66.2901 66.9052C65.8092 66.6762 65.2139 66.493 64.504 66.3556C63.817 66.1954 63.1186 66.1152 62.4087 66.1152C61.7675 66.1152 61.2866 66.2183 60.966 66.4243C60.6683 66.6304 60.5195 66.9052 60.5195 67.2487C60.5195 67.5235 60.6912 67.764 61.0347 67.9701C61.3782 68.1533 61.8133 68.325 62.34 68.4853C62.8896 68.6456 63.4621 68.8402 64.0574 69.0692C64.6757 69.2982 65.2482 69.5845 65.7749 69.928C66.3245 70.2714 66.7596 70.7294 67.0802 71.3019C67.4237 71.8515 67.5954 72.5499 67.5954 73.3972C67.5954 74.2674 67.3779 75.0803 66.9428 75.836C66.5306 76.5688 65.8436 77.1642 64.8818 77.6222C63.9429 78.0801 62.7178 78.3091 61.2065 78.3091C60.176 78.3091 59.1684 78.1946 58.1837 77.9657C57.222 77.7367 56.4434 77.439 55.848 77.0726L56.1228 73.3629C56.6953 73.7293 57.4395 74.0613 58.3555 74.359C59.2944 74.6338 60.2218 74.7712 61.1378 74.7712C62.443 74.7712 63.0957 74.3819 63.0957 73.6033C63.0957 73.3056 62.9239 73.0652 62.5804 72.882C62.2369 72.6988 61.8019 72.527 61.2752 72.3667C60.7485 72.1835 60.176 71.9775 59.5577 71.7485C58.9394 71.5195 58.3669 71.2332 57.8403 70.8897C57.3136 70.5233 56.8785 70.0654 56.535 69.5158C56.1915 68.9662 56.0198 68.2678 56.0198 67.4205C56.0198 66.5045 56.2716 65.6916 56.7754 64.9817C57.3021 64.2489 58.0463 63.665 59.0081 63.2299C59.9699 62.7948 61.1149 62.5772 62.443 62.5772C63.3361 62.5772 64.1834 62.6459 64.9849 62.7833C65.7863 62.8978 66.439 63.081 66.9428 63.3329ZM71.976 55.9479C72.663 55.9479 73.224 56.1769 73.6591 56.6349C74.0942 57.0699 74.3117 57.6195 74.3117 58.2836C74.3117 58.9706 74.0942 59.5431 73.6591 60.0011C73.224 60.4362 72.663 60.6537 71.976 60.6537C71.2661 60.6537 70.6707 60.4362 70.1898 60.0011C69.7318 59.5431 69.5029 58.9706 69.5029 58.2836C69.5029 57.6195 69.7318 57.0699 70.1898 56.6349C70.6707 56.1769 71.2661 55.9479 71.976 55.9479ZM74.1056 62.7833V78H69.7089V62.9894L74.1056 62.7833ZM100.474 78H96.0773V68.9662C96.0773 68.8517 96.0658 68.7486 96.0429 68.657C96.02 68.5654 95.9971 68.4738 95.9742 68.3822C95.9055 67.6953 95.6765 67.2029 95.2872 66.9052C94.8979 66.6075 94.3942 66.4587 93.7759 66.4587C93.753 66.4587 93.7186 66.4701 93.6728 66.493C93.627 66.493 93.5927 66.493 93.5698 66.493C93.1347 66.5159 92.6767 66.6075 92.1958 66.7678C91.7378 66.9281 91.2913 67.1457 90.8562 67.4205C90.8791 67.6266 90.8905 67.8327 90.8905 68.0388C90.9134 68.2449 90.9249 68.4624 90.9249 68.6914V78H86.5626V68.9662C86.5626 68.8517 86.5511 68.7486 86.5282 68.657C86.5053 68.5654 86.4824 68.4738 86.4595 68.3822C86.3908 67.6953 86.1618 67.2029 85.7725 66.9052C85.3832 66.6075 84.8794 66.4587 84.2612 66.4587C83.8261 66.4587 83.3452 66.5503 82.8185 66.7335C82.3147 66.8938 81.8453 67.1228 81.4102 67.4205V78H77.0135V62.9894L81.4102 62.7833V64.1917C81.914 63.8024 82.4178 63.4932 82.9215 63.2642C83.4482 63.0123 83.9635 62.852 84.4673 62.7833C85.0626 62.6459 85.6924 62.6116 86.3565 62.6803C87.1808 62.7261 87.9251 62.9207 88.5892 63.2642C89.2532 63.6077 89.7799 64.123 90.1692 64.8099C90.9707 64.0314 91.7951 63.4703 92.6423 63.1268C93.5125 62.7604 94.3942 62.5772 95.2872 62.5772C96.8215 62.5772 98.0695 63.0238 99.0313 63.9169C99.9931 64.787 100.474 66.161 100.474 68.0388V78ZM118.485 70.2714C118.485 71.8057 118.153 73.1797 117.489 74.3933C116.847 75.607 115.954 76.5688 114.809 77.2787C113.687 77.9657 112.382 78.3091 110.894 78.3091C109.611 78.3091 108.569 78.103 107.768 77.6909V84.3546H103.371V62.9894L107.768 62.7833V63.8825C108.294 63.4474 108.878 63.1268 109.52 62.9207C110.161 62.6917 110.894 62.5772 111.718 62.5772C112.977 62.5772 114.111 62.8864 115.118 63.5047C116.149 64.123 116.962 65.0046 117.557 66.1496C118.176 67.2945 118.485 68.6685 118.485 70.2714ZM113.951 70.4088C113.951 69.5845 113.813 68.8746 113.538 68.2792C113.264 67.6609 112.851 67.1915 112.302 66.8709C111.775 66.5274 111.111 66.3556 110.31 66.3556C109.325 66.3556 108.478 66.619 107.768 67.1457V74.1185C108.065 74.233 108.409 74.3361 108.798 74.4277C109.21 74.4964 109.634 74.5307 110.069 74.5307C110.871 74.5307 111.558 74.3704 112.13 74.0499C112.703 73.7064 113.149 73.2255 113.47 72.6072C113.79 71.966 113.951 71.2332 113.951 70.4088ZM124.867 56.2227V78H120.47V56.4288L124.867 56.2227ZM141.171 71.508H131.485C131.622 72.1263 131.897 72.6644 132.309 73.1224C132.744 73.5575 133.294 73.8896 133.958 74.1185C134.645 74.3475 135.446 74.462 136.362 74.462C137.141 74.462 137.977 74.359 138.87 74.1529C139.763 73.9239 140.496 73.6377 141.068 73.2942L141.24 77.0382C140.645 77.4504 139.843 77.771 138.835 78C137.851 78.2061 136.923 78.3091 136.053 78.3091C134.107 78.3091 132.435 77.9886 131.038 77.3474C129.664 76.6833 128.622 75.7559 127.912 74.5651C127.225 73.3743 126.882 71.9775 126.882 70.3745C126.882 68.7944 127.203 67.4319 127.844 66.287C128.508 65.1191 129.412 64.2146 130.557 63.5734C131.725 62.9093 133.03 62.5772 134.473 62.5772C135.801 62.5772 136.981 62.8406 138.011 63.3673C139.064 63.894 139.877 64.6611 140.45 65.6687C141.045 66.6533 141.343 67.8441 141.343 69.241C141.343 69.5387 141.32 69.9051 141.274 70.3401C141.251 70.7523 141.217 71.1416 141.171 71.508ZM134.507 65.7374C133.614 65.7374 132.882 66.0351 132.309 66.6304C131.76 67.2258 131.428 68.0159 131.313 69.0005H137.255C137.255 68.9547 137.255 68.886 137.255 68.7944C137.255 68.6799 137.255 68.5998 137.255 68.554C137.255 67.7067 137.004 67.0312 136.5 66.5274C136.019 66.0007 135.355 65.7374 134.507 65.7374ZM168.923 78H164.045L162.328 73.0194H155.149L153.397 78H148.76L156.179 57.5966H161.503L168.923 78ZM161.16 69.4127L159.511 64.7756C159.351 64.3176 159.213 63.894 159.099 63.5047C159.007 63.0925 158.916 62.6803 158.824 62.2681H158.652C158.561 62.6803 158.458 63.0925 158.343 63.5047C158.251 63.894 158.126 64.3176 157.965 64.7756L156.282 69.4127H161.16ZM186.322 64.6038C186.322 66.1152 185.978 67.3976 185.291 68.4509C184.627 69.5043 183.654 70.2943 182.372 70.821C181.089 71.3477 179.544 71.6111 177.734 71.6111H175.33V78H170.762V57.5966H177.769C179.578 57.5966 181.112 57.8714 182.372 58.421C183.654 58.9706 184.627 59.7606 185.291 60.7911C185.978 61.8216 186.322 63.0925 186.322 64.6038ZM181.753 64.6038C181.753 63.8482 181.582 63.2299 181.238 62.749C180.918 62.2681 180.448 61.9132 179.83 61.6842C179.234 61.4552 178.513 61.3407 177.666 61.3407H175.33V67.867H177.666C178.513 67.867 179.234 67.7525 179.83 67.5235C180.448 67.2945 180.918 66.9396 181.238 66.4587C181.582 65.9778 181.753 65.3595 181.753 64.6038ZM193.369 57.5966V78H188.8V57.5966H193.369ZM226.595 62.8864L222.13 78H217.458L215.672 72.6759C215.351 71.5767 215.088 70.6951 214.882 70.031C214.676 69.344 214.504 68.7143 214.367 68.1418H214.195C214.081 68.7143 213.909 69.344 213.68 70.031C213.474 70.6951 213.21 71.5767 212.89 72.6759L211.104 78H206.432L201.967 62.9894L206.398 62.7833L208.424 69.9967C208.539 70.4775 208.653 71.05 208.768 71.7141C208.905 72.3553 209.008 72.9507 209.077 73.5003H209.249C209.317 72.9507 209.432 72.3553 209.592 71.7141C209.753 71.05 209.901 70.4775 210.039 69.9967L212.031 64.0199H216.702L218.695 69.9967C218.832 70.4775 218.981 71.05 219.141 71.7141C219.302 72.3553 219.416 72.9507 219.485 73.5003H219.657C219.725 72.9507 219.817 72.3553 219.931 71.7141C220.069 71.05 220.195 70.4775 220.309 69.9967L222.267 62.8864H226.595ZM237.935 62.749L237.763 66.9739C237.626 66.9052 237.385 66.8365 237.042 66.7678C236.721 66.6991 236.412 66.6648 236.115 66.6648C235.496 66.6648 234.889 66.7793 234.294 67.0083C233.722 67.2144 233.195 67.5006 232.714 67.867V78H228.317V62.9894L232.714 62.7833V64.5695C233.378 63.8825 234.054 63.3787 234.741 63.0581C235.45 62.7375 236.183 62.5772 236.939 62.5772C237.099 62.5772 237.271 62.5887 237.454 62.6116C237.66 62.6345 237.821 62.6803 237.935 62.749ZM252.598 78H248.441V76.8321C247.892 77.2672 247.228 77.6222 246.449 77.897C245.671 78.1717 244.812 78.3091 243.873 78.3091C242.201 78.3091 240.919 77.9084 240.026 77.1069C239.156 76.3054 238.721 75.1948 238.721 73.7751C238.721 72.2408 239.259 71.0844 240.335 70.3058C241.411 69.5043 242.865 69.1036 244.697 69.1036C245.361 69.1036 246.025 69.1608 246.69 69.2753C247.354 69.3898 247.892 69.5387 248.304 69.7219V68.8975C248.304 68.0044 248.018 67.3747 247.445 67.0083C246.896 66.619 246.025 66.4243 244.835 66.4243C243.987 66.4243 243.117 66.5274 242.224 66.7335C241.354 66.9396 240.656 67.2029 240.129 67.5235L239.957 63.6764C240.667 63.3329 241.503 63.0696 242.465 62.8864C243.449 62.6803 244.457 62.5772 245.487 62.5772C247.777 62.5772 249.529 63.0696 250.743 64.0543C251.979 65.016 252.598 66.5388 252.598 68.6227V78ZM248.304 74.4964V72.3324C247.983 72.1721 247.583 72.0462 247.102 71.9546C246.644 71.863 246.197 71.8172 245.762 71.8172C244.892 71.8172 244.228 71.9775 243.77 72.298C243.312 72.5957 243.083 73.0652 243.083 73.7064C243.083 74.3017 243.278 74.7368 243.667 75.0116C244.056 75.2635 244.629 75.3895 245.384 75.3895C245.911 75.3895 246.449 75.3093 246.999 75.149C247.548 74.9658 247.983 74.7483 248.304 74.4964ZM270.586 70.2714C270.586 71.8057 270.253 73.1797 269.589 74.3933C268.948 75.607 268.055 76.5688 266.91 77.2787C265.788 77.9657 264.483 78.3091 262.994 78.3091C261.712 78.3091 260.67 78.103 259.869 77.6909V84.3546H255.472V62.9894L259.869 62.7833V63.8825C260.395 63.4474 260.979 63.1268 261.62 62.9207C262.262 62.6917 262.994 62.5772 263.819 62.5772C265.078 62.5772 266.212 62.8864 267.219 63.5047C268.25 64.123 269.063 65.0046 269.658 66.1496C270.276 67.2945 270.586 68.6685 270.586 70.2714ZM266.051 70.4088C266.051 69.5845 265.914 68.8746 265.639 68.2792C265.364 67.6609 264.952 67.1915 264.403 66.8709C263.876 66.5274 263.212 66.3556 262.41 66.3556C261.426 66.3556 260.578 66.619 259.869 67.1457V74.1185C260.166 74.233 260.51 74.3361 260.899 74.4277C261.311 74.4964 261.735 74.5307 262.17 74.5307C262.971 74.5307 263.658 74.3704 264.231 74.0499C264.803 73.7064 265.25 73.2255 265.571 72.6072C265.891 71.966 266.051 71.2332 266.051 70.4088ZM287.685 70.2714C287.685 71.8057 287.353 73.1797 286.689 74.3933C286.048 75.607 285.155 76.5688 284.01 77.2787C282.888 77.9657 281.582 78.3091 280.094 78.3091C278.811 78.3091 277.769 78.103 276.968 77.6909V84.3546H272.571V62.9894L276.968 62.7833V63.8825C277.495 63.4474 278.079 63.1268 278.72 62.9207C279.361 62.6917 280.094 62.5772 280.918 62.5772C282.178 62.5772 283.311 62.8864 284.319 63.5047C285.349 64.123 286.162 65.0046 286.758 66.1496C287.376 67.2945 287.685 68.6685 287.685 70.2714ZM283.151 70.4088C283.151 69.5845 283.013 68.8746 282.739 68.2792C282.464 67.6609 282.052 67.1915 281.502 66.8709C280.975 66.5274 280.311 66.3556 279.51 66.3556C278.525 66.3556 277.678 66.619 276.968 67.1457V74.1185C277.266 74.233 277.609 74.3361 277.998 74.4277C278.411 74.4964 278.834 74.5307 279.269 74.5307C280.071 74.5307 280.758 74.3704 281.33 74.0499C281.903 73.7064 282.349 73.2255 282.67 72.6072C282.991 71.966 283.151 71.2332 283.151 70.4088ZM303.067 71.508H293.38C293.518 72.1263 293.793 72.6644 294.205 73.1224C294.64 73.5575 295.19 73.8896 295.854 74.1185C296.541 74.3475 297.342 74.462 298.258 74.462C299.037 74.462 299.872 74.359 300.766 74.1529C301.659 73.9239 302.391 73.6377 302.964 73.2942L303.136 77.0382C302.54 77.4504 301.739 77.771 300.731 78C299.746 78.2061 298.819 78.3091 297.949 78.3091C296.002 78.3091 294.331 77.9886 292.934 77.3474C291.56 76.6833 290.518 75.7559 289.808 74.5651C289.121 73.3743 288.778 71.9775 288.778 70.3745C288.778 68.7944 289.098 67.4319 289.739 66.287C290.404 65.1191 291.308 64.2146 292.453 63.5734C293.621 62.9093 294.926 62.5772 296.369 62.5772C297.697 62.5772 298.876 62.8406 299.907 63.3673C300.96 63.894 301.773 64.6611 302.346 65.6687C302.941 66.6533 303.239 67.8441 303.239 69.241C303.239 69.5387 303.216 69.9051 303.17 70.3401C303.147 70.7523 303.113 71.1416 303.067 71.508ZM296.403 65.7374C295.51 65.7374 294.777 66.0351 294.205 66.6304C293.655 67.2258 293.323 68.0159 293.209 69.0005H299.151C299.151 68.9547 299.151 68.886 299.151 68.7944C299.151 68.6799 299.151 68.5998 299.151 68.554C299.151 67.7067 298.899 67.0312 298.395 66.5274C297.915 66.0007 297.25 65.7374 296.403 65.7374ZM315.08 62.749L314.908 66.9739C314.771 66.9052 314.53 66.8365 314.187 66.7678C313.866 66.6991 313.557 66.6648 313.259 66.6648C312.641 66.6648 312.034 66.7793 311.439 67.0083C310.866 67.2144 310.34 67.5006 309.859 67.867V78H305.462V62.9894L309.859 62.7833V64.5695C310.523 63.8825 311.198 63.3787 311.885 63.0581C312.595 62.7375 313.328 62.5772 314.084 62.5772C314.244 62.5772 314.416 62.5887 314.599 62.6116C314.805 62.6345 314.965 62.6803 315.08 62.749ZM38.923 85.4631L38.7513 89.2415C38.591 89.1728 38.3734 89.127 38.0986 89.1041C37.8467 89.0812 37.6063 89.0698 37.3773 89.0698C36.5529 89.0698 35.9232 89.253 35.4881 89.6193C35.053 89.9857 34.8355 90.5926 34.8355 91.4399V91.8864H38.5795L38.2704 95.6648H34.8355V107H30.4388V95.6648H28.3778V91.8864H30.4388V91.3712C30.4388 89.356 31.0227 87.8332 32.1906 86.8027C33.3585 85.7493 34.9271 85.2227 36.8964 85.2227C37.217 85.2227 37.572 85.2456 37.9612 85.2914C38.3505 85.3372 38.6711 85.3944 38.923 85.4631ZM55.6969 99.4432C55.6969 100.955 55.342 102.306 54.6321 103.496C53.9451 104.687 52.9833 105.626 51.7468 106.313C50.5102 106.977 49.1019 107.309 47.5218 107.309C45.9418 107.309 44.5335 106.977 43.2969 106.313C42.0603 105.626 41.0871 104.687 40.3772 103.496C39.6902 102.306 39.3467 100.955 39.3467 99.4432C39.3467 97.9089 39.6902 96.5579 40.3772 95.39C41.0871 94.1992 42.0603 93.2718 43.2969 92.6077C44.5335 91.9207 45.9418 91.5772 47.5218 91.5772C49.1019 91.5772 50.5102 91.9207 51.7468 92.6077C52.9833 93.2718 53.9451 94.1992 54.6321 95.39C55.342 96.5579 55.6969 97.9089 55.6969 99.4432ZM51.1628 99.4432C51.1628 98.6417 51.0025 97.9433 50.682 97.3479C50.3614 96.7296 49.9263 96.2602 49.3767 95.9396C48.8271 95.5961 48.2088 95.4243 47.5218 95.4243C46.8349 95.4243 46.2166 95.5961 45.667 95.9396C45.1174 96.2602 44.6823 96.7296 44.3617 97.3479C44.0411 97.9433 43.8808 98.6417 43.8808 99.4432C43.8808 100.245 44.0411 100.955 44.3617 101.573C44.6823 102.168 45.1174 102.638 45.667 102.981C46.2395 103.302 46.8578 103.462 47.5218 103.462C48.2317 103.462 48.8615 103.302 49.411 102.981C49.9606 102.638 50.3843 102.168 50.682 101.573C51.0025 100.955 51.1628 100.245 51.1628 99.4432ZM67.2924 91.749L67.1207 95.9739C66.9833 95.9052 66.7428 95.8365 66.3994 95.7678C66.0788 95.6991 65.7696 95.6648 65.4719 95.6648C64.8536 95.6648 64.2468 95.7793 63.6514 96.0083C63.0789 96.2144 62.5523 96.5006 62.0714 96.867V107H57.6747V91.9894L62.0714 91.7833V93.5695C62.7355 92.8825 63.411 92.3787 64.098 92.0581C64.8078 91.7375 65.5406 91.5772 66.2963 91.5772C66.4566 91.5772 66.6283 91.5887 66.8115 91.6116C67.0176 91.6345 67.1779 91.6803 67.2924 91.749Z" fill="white"/>
<path d="M89.1406 87.3867L88.2819 91.4399C87.9155 91.2109 87.4232 91.0162 86.8049 90.8559C86.2095 90.6956 85.5912 90.5697 84.95 90.4781C84.3088 90.3636 83.702 90.3063 83.1295 90.3063C82.0304 90.3063 81.1945 90.4666 80.622 90.7872C80.0496 91.1078 79.7633 91.6001 79.7633 92.2642C79.7633 92.7222 79.9465 93.0886 80.3129 93.3634C80.6793 93.6382 81.1602 93.8786 81.7556 94.0847C82.3738 94.2908 83.0494 94.4969 83.7822 94.703C84.5149 94.9091 85.2477 95.161 85.9805 95.4587C86.7133 95.7335 87.3774 96.0999 87.9727 96.5579C88.5681 96.993 89.049 97.5654 89.4154 98.2753C89.8047 98.9623 89.9993 99.821 89.9993 100.852C89.9993 102.821 89.278 104.389 87.8354 105.557C86.3927 106.725 84.3088 107.309 81.5838 107.309C80.3243 107.309 79.1221 107.195 77.9772 106.966C76.8551 106.737 75.9277 106.428 75.1949 106.038L75.5727 101.779C76.0307 102.054 76.5917 102.306 77.2558 102.535C77.9199 102.764 78.6412 102.947 79.4198 103.084C80.1984 103.222 80.9655 103.29 81.7212 103.29C82.9349 103.29 83.8394 103.13 84.4348 102.809C85.0302 102.466 85.3279 101.951 85.3279 101.264C85.3279 100.783 85.1332 100.394 84.7439 100.096C84.3775 99.7981 83.8967 99.5462 83.3013 99.3401C82.7059 99.1341 82.0418 98.928 81.309 98.7219C80.5762 98.5158 79.8435 98.2753 79.1107 98.0005C78.3779 97.7028 77.7024 97.3364 77.0841 96.9014C76.4887 96.4663 76.0078 95.9052 75.6414 95.2183C75.275 94.5313 75.0918 93.6725 75.0918 92.6421C75.0918 91.3826 75.401 90.2834 76.0193 89.3446C76.6604 88.3828 77.5764 87.6385 78.7672 87.1119C79.958 86.5623 81.3777 86.2875 83.0265 86.2875C83.6906 86.2875 84.4004 86.3333 85.1561 86.4249C85.9118 86.4936 86.6331 86.6081 87.3201 86.7684C88.03 86.9287 88.6368 87.1348 89.1406 87.3867ZM104.225 92.9169L103.263 96.9014C102.874 96.5121 102.358 96.1915 101.717 95.9396C101.076 95.6877 100.412 95.5617 99.725 95.5617C98.9693 95.5617 98.2823 95.722 97.664 96.0426C97.0686 96.3403 96.5992 96.7754 96.2557 97.3479C95.9351 97.9204 95.7748 98.6074 95.7748 99.4088C95.7748 100.233 95.9466 100.943 96.2901 101.538C96.6336 102.134 97.1259 102.58 97.7671 102.878C98.4312 103.176 99.1983 103.325 100.068 103.325C100.847 103.325 101.58 103.21 102.267 102.981C102.977 102.752 103.606 102.454 104.156 102.088L104.328 106.004C103.687 106.393 102.954 106.714 102.129 106.966C101.305 107.195 100.378 107.309 99.3471 107.309C97.9045 107.309 96.5649 107 95.3283 106.382C94.0917 105.763 93.0956 104.87 92.3399 103.702C91.6071 102.512 91.2407 101.081 91.2407 99.4088C91.2407 97.8975 91.5957 96.5579 92.3056 95.39C93.0154 94.1992 93.9772 93.2718 95.1909 92.6077C96.4046 91.9207 97.7556 91.5772 99.2441 91.5772C100.343 91.5772 101.305 91.7032 102.129 91.9551C102.977 92.1841 103.675 92.5047 104.225 92.9169ZM121.772 99.4432C121.772 100.955 121.417 102.306 120.707 103.496C120.02 104.687 119.058 105.626 117.822 106.313C116.585 106.977 115.177 107.309 113.597 107.309C112.017 107.309 110.609 106.977 109.372 106.313C108.135 105.626 107.162 104.687 106.452 103.496C105.765 102.306 105.422 100.955 105.422 99.4432C105.422 97.9089 105.765 96.5579 106.452 95.39C107.162 94.1992 108.135 93.2718 109.372 92.6077C110.609 91.9207 112.017 91.5772 113.597 91.5772C115.177 91.5772 116.585 91.9207 117.822 92.6077C119.058 93.2718 120.02 94.1992 120.707 95.39C121.417 96.5579 121.772 97.9089 121.772 99.4432ZM117.238 99.4432C117.238 98.6417 117.078 97.9433 116.757 97.3479C116.436 96.7296 116.001 96.2602 115.452 95.9396C114.902 95.5961 114.284 95.4243 113.597 95.4243C112.91 95.4243 112.292 95.5961 111.742 95.9396C111.192 96.2602 110.757 96.7296 110.437 97.3479C110.116 97.9433 109.956 98.6417 109.956 99.4432C109.956 100.245 110.116 100.955 110.437 101.573C110.757 102.168 111.192 102.638 111.742 102.981C112.315 103.302 112.933 103.462 113.597 103.462C114.307 103.462 114.937 103.302 115.486 102.981C116.036 102.638 116.459 102.168 116.757 101.573C117.078 100.955 117.238 100.245 117.238 99.4432ZM142.642 96.7983C142.642 98.7906 142.184 100.554 141.268 102.088C140.352 103.622 139.047 104.825 137.352 105.695C135.68 106.565 133.677 107 131.341 107H124.059V86.5966H131.341C133.677 86.5966 135.68 87.0317 137.352 87.9019C139.047 88.7721 140.352 89.9743 141.268 91.5085C142.184 93.0199 142.642 94.7832 142.642 96.7983ZM137.902 96.7983C137.902 95.4701 137.638 94.3366 137.112 93.3978C136.585 92.4589 135.829 91.7375 134.845 91.2338C133.86 90.7071 132.692 90.4437 131.341 90.4437H128.593V103.153H131.341C132.692 103.153 133.86 102.901 134.845 102.397C135.829 101.871 136.585 101.138 137.112 100.199C137.638 99.2371 137.902 98.1036 137.902 96.7983ZM160.231 99.4432C160.231 100.955 159.876 102.306 159.166 103.496C158.479 104.687 157.517 105.626 156.281 106.313C155.044 106.977 153.636 107.309 152.056 107.309C150.476 107.309 149.067 106.977 147.831 106.313C146.594 105.626 145.621 104.687 144.911 103.496C144.224 102.306 143.881 100.955 143.881 99.4432C143.881 97.9089 144.224 96.5579 144.911 95.39C145.621 94.1992 146.594 93.2718 147.831 92.6077C149.067 91.9207 150.476 91.5772 152.056 91.5772C153.636 91.5772 155.044 91.9207 156.281 92.6077C157.517 93.2718 158.479 94.1992 159.166 95.39C159.876 96.5579 160.231 97.9089 160.231 99.4432ZM155.697 99.4432C155.697 98.6417 155.537 97.9433 155.216 97.3479C154.895 96.7296 154.46 96.2602 153.911 95.9396C153.361 95.5961 152.743 95.4243 152.056 95.4243C151.369 95.4243 150.751 95.5961 150.201 95.9396C149.651 96.2602 149.216 96.7296 148.896 97.3479C148.575 97.9433 148.415 98.6417 148.415 99.4432C148.415 100.245 148.575 100.955 148.896 101.573C149.216 102.168 149.651 102.638 150.201 102.981C150.773 103.302 151.392 103.462 152.056 103.462C152.766 103.462 153.395 103.302 153.945 102.981C154.495 102.638 154.918 102.168 155.216 101.573C155.537 100.955 155.697 100.245 155.697 99.4432ZM174.3 92.9169L173.338 96.9014C172.949 96.5121 172.433 96.1915 171.792 95.9396C171.151 95.6877 170.487 95.5617 169.8 95.5617C169.044 95.5617 168.357 95.722 167.739 96.0426C167.144 96.3403 166.674 96.7754 166.331 97.3479C166.01 97.9204 165.85 98.6074 165.85 99.4088C165.85 100.233 166.021 100.943 166.365 101.538C166.708 102.134 167.201 102.58 167.842 102.878C168.506 103.176 169.273 103.325 170.143 103.325C170.922 103.325 171.655 103.21 172.342 102.981C173.052 102.752 173.681 102.454 174.231 102.088L174.403 106.004C173.761 106.393 173.029 106.714 172.204 106.966C171.38 107.195 170.452 107.309 169.422 107.309C167.979 107.309 166.64 107 165.403 106.382C164.167 105.763 163.17 104.87 162.415 103.702C161.682 102.512 161.316 101.081 161.316 99.4088C161.316 97.8975 161.671 96.5579 162.38 95.39C163.09 94.1992 164.052 93.2718 165.266 92.6077C166.479 91.9207 167.83 91.5772 169.319 91.5772C170.418 91.5772 171.38 91.7032 172.204 91.9551C173.052 92.1841 173.75 92.5047 174.3 92.9169ZM200.99 86.5966V107H197.075L189.312 96.1113C189.014 95.6991 188.728 95.287 188.453 94.8748C188.201 94.4397 187.972 94.0275 187.766 93.6382H187.594V107H183.232V86.5966H187.663L194.911 96.7983C195.208 97.1876 195.483 97.5998 195.735 98.0349C196.01 98.4471 196.25 98.8478 196.456 99.2371H196.628V86.5966H200.99ZM219.639 99.4432C219.639 100.955 219.284 102.306 218.574 103.496C217.887 104.687 216.925 105.626 215.689 106.313C214.452 106.977 213.044 107.309 211.464 107.309C209.884 107.309 208.475 106.977 207.239 106.313C206.002 105.626 205.029 104.687 204.319 103.496C203.632 102.306 203.289 100.955 203.289 99.4432C203.289 97.9089 203.632 96.5579 204.319 95.39C205.029 94.1992 206.002 93.2718 207.239 92.6077C208.475 91.9207 209.884 91.5772 211.464 91.5772C213.044 91.5772 214.452 91.9207 215.689 92.6077C216.925 93.2718 217.887 94.1992 218.574 95.39C219.284 96.5579 219.639 97.9089 219.639 99.4432ZM215.105 99.4432C215.105 98.6417 214.944 97.9433 214.624 97.3479C214.303 96.7296 213.868 96.2602 213.319 95.9396C212.769 95.5961 212.151 95.4243 211.464 95.4243C210.777 95.4243 210.158 95.5961 209.609 95.9396C209.059 96.2602 208.624 96.7296 208.304 97.3479C207.983 97.9433 207.823 98.6417 207.823 99.4432C207.823 100.245 207.983 100.955 208.304 101.573C208.624 102.168 209.059 102.638 209.609 102.981C210.181 103.302 210.8 103.462 211.464 103.462C212.174 103.462 212.803 103.302 213.353 102.981C213.902 102.638 214.326 102.168 214.624 101.573C214.944 100.955 215.105 100.245 215.105 99.4432ZM231.097 91.8864L230.788 95.6648H226.769V101.401C226.769 102.157 226.952 102.695 227.319 103.016C227.685 103.313 228.223 103.462 228.933 103.462C229.322 103.462 229.689 103.405 230.032 103.29C230.398 103.153 230.708 102.993 230.96 102.809L231.131 106.519C230.33 107.046 229.242 107.309 227.868 107.309C225.967 107.309 224.582 106.84 223.712 105.901C222.842 104.962 222.407 103.622 222.407 101.882V95.6648H220.346V91.8864H222.407V88.7263L226.769 87.7988V91.8864H231.097ZM246.544 100.508H236.857C236.995 101.126 237.27 101.664 237.682 102.122C238.117 102.558 238.666 102.89 239.33 103.119C240.017 103.348 240.819 103.462 241.735 103.462C242.514 103.462 243.349 103.359 244.242 103.153C245.135 102.924 245.868 102.638 246.441 102.294L246.613 106.038C246.017 106.45 245.216 106.771 244.208 107C243.223 107.206 242.296 107.309 241.426 107.309C239.479 107.309 237.808 106.989 236.411 106.347C235.037 105.683 233.995 104.756 233.285 103.565C232.598 102.374 232.255 100.977 232.255 99.3745C232.255 97.7944 232.575 96.4319 233.216 95.287C233.88 94.1191 234.785 93.2146 235.93 92.5734C237.098 91.9093 238.403 91.5772 239.846 91.5772C241.174 91.5772 242.353 91.8406 243.384 92.3673C244.437 92.894 245.25 93.6611 245.822 94.6687C246.418 95.6533 246.716 96.8441 246.716 98.241C246.716 98.5387 246.693 98.9051 246.647 99.3401C246.624 99.7523 246.59 100.142 246.544 100.508ZM239.88 94.7374C238.987 94.7374 238.254 95.0351 237.682 95.6304C237.132 96.2258 236.8 97.0159 236.686 98.0005H242.628C242.628 97.9547 242.628 97.886 242.628 97.7944C242.628 97.6799 242.628 97.5998 242.628 97.554C242.628 96.7067 242.376 96.0312 241.872 95.5274C241.391 95.0007 240.727 94.7374 239.88 94.7374ZM259.381 92.3329L258.728 95.9052C258.247 95.6762 257.652 95.493 256.942 95.3556C256.255 95.1954 255.557 95.1152 254.847 95.1152C254.206 95.1152 253.725 95.2183 253.404 95.4243C253.107 95.6304 252.958 95.9052 252.958 96.2487C252.958 96.5235 253.129 96.764 253.473 96.9701C253.816 97.1533 254.252 97.325 254.778 97.4853C255.328 97.6456 255.9 97.8402 256.496 98.0692C257.114 98.2982 257.686 98.5845 258.213 98.928C258.763 99.2714 259.198 99.7294 259.518 100.302C259.862 100.852 260.034 101.55 260.034 102.397C260.034 103.267 259.816 104.08 259.381 104.836C258.969 105.569 258.282 106.164 257.32 106.622C256.381 107.08 255.156 107.309 253.645 107.309C252.614 107.309 251.607 107.195 250.622 106.966C249.66 106.737 248.882 106.439 248.286 106.073L248.561 102.363C249.134 102.729 249.878 103.061 250.794 103.359C251.733 103.634 252.66 103.771 253.576 103.771C254.881 103.771 255.534 103.382 255.534 102.603C255.534 102.306 255.362 102.065 255.019 101.882C254.675 101.699 254.24 101.527 253.713 101.367C253.187 101.184 252.614 100.977 251.996 100.748C251.378 100.519 250.805 100.233 250.278 99.8897C249.752 99.5233 249.317 99.0654 248.973 98.5158C248.63 97.9662 248.458 97.2678 248.458 96.4205C248.458 95.5045 248.71 94.6916 249.214 93.9817C249.74 93.2489 250.485 92.665 251.446 92.2299C252.408 91.7948 253.553 91.5772 254.881 91.5772C255.774 91.5772 256.622 91.6459 257.423 91.7833C258.225 91.8978 258.877 92.081 259.381 92.3329Z" fill="#A0D9FF"/>
<g style="mix-blend-mode:overlay">
<path fill-rule="evenodd" clip-rule="evenodd" d="M477.798 -3.92365L379 -3.92364V-55L477.798 -55L477.798 -3.92365L529.11 -3.92364V94.7405L477.798 95.3454L477.798 47.5157C451.624 47.9714 430.547 69.211 430.547 95.3454H379C379 40.9038 423.155 -3.46485 477.798 -3.92365Z" fill="#A0D9FF"/>
<path fill-rule="evenodd" clip-rule="evenodd" d="M580.892 94.9329L679.69 94.9293V146.187H580.892V94.9293L529.11 94.7407V-3.92344L580.892 -3.92344V43.6713C607.066 43.2156 628.127 22.211 628.127 -3.92344H679.221C679.221 50.5181 635.536 94.4705 580.892 94.9293V94.9329Z" fill="#0684D8" fill-opacity="0.5"/>
<path fill-rule="evenodd" clip-rule="evenodd" d="M778.489 47.0959L679.221 47.0959V-3.92334L778.489 -3.92334V47.0995L830.036 47.0995V146.187H778.489V98.3574C752.315 98.8132 731.238 120.053 731.238 146.187H679.691C679.691 91.7456 723.845 47.5583 778.489 47.0995V47.0959Z" fill="#A0D9FF" fill-opacity="0.7"/>
</g>
</g>
<rect x="0.5" y="0.5" width="829" height="134" rx="13.5" stroke="url(#paint2_linear_629_6289)" style="mix-blend-mode:overlay"/>
<rect x="0.5" y="0.5" width="829" height="134" rx="13.5" stroke="url(#paint3_linear_629_6289)" stroke-opacity="0.1"/>
<rect x="0.5" y="0.5" width="829" height="134" rx="13.5" stroke="white" stroke-opacity="0.1"/>
<defs>
<radialGradient id="paint0_radial_629_6289" cx="0" cy="0" r="1" gradientUnits="userSpaceOnUse" gradientTransform="translate(9.4458e-07 165.586) rotate(17.7974) scale(413.385 308.037)">
<stop offset="0.100613" stop-color="#A0D9FF" stop-opacity="0"/>
<stop offset="0.515" stop-color="#0099FF"/>
<stop offset="1" stop-color="#0099FF" stop-opacity="0.35"/>
</radialGradient>
<radialGradient id="paint1_radial_629_6289" cx="0" cy="0" r="1" gradientUnits="userSpaceOnUse" gradientTransform="translate(1075 -132) rotate(110.154) scale(458.578 1768.11)">
<stop stop-color="#2B7BB1" stop-opacity="0"/>
<stop offset="0.285" stop-color="#2B7BB1"/>
<stop offset="1" stop-color="#2B7BB1" stop-opacity="0.184314"/>
</radialGradient>
<linearGradient id="paint2_linear_629_6289" x1="415" y1="0" x2="415" y2="135" gradientUnits="userSpaceOnUse">
<stop stop-color="white" stop-opacity="0.6"/>
<stop offset="0.5" stop-color="white" stop-opacity="0"/>
<stop offset="1" stop-color="white"/>
</linearGradient>
<linearGradient id="paint3_linear_629_6289" x1="415" y1="0" x2="415" y2="135" gradientUnits="userSpaceOnUse">
<stop stop-color="white" stop-opacity="0.6"/>
<stop offset="0.5" stop-color="white" stop-opacity="0"/>
<stop offset="1" stop-color="white"/>
</linearGradient>
<clipPath id="clip0_629_6289">
<rect width="830" height="135" rx="14" fill="white"/>
</clipPath>
</defs>
</svg>
